# xmcd
#
# Track frame offsets:
#	150
#	21516
#	41245
#	59647
#	82070
#	103672
#	122470
#	142453
#	163883
#	187019
#	211227
#	224703
#	247538
#	263756
#	288025
#
# Disc length: 4024 seconds
#
# Revision: 3
# Processed by: cddbd v1.5.2PL0 Copyright (c) Steve Scherf et al.
# Submitted via: EasyCDDAExtractor 2010.4.0.0
#
DISCID=ed0fb60f
DTITLE=Δέσποινα Βανδή - Γειά and ’ντε γειά - CD2
DYEAR=2002
DGENRE=Greek Pop
TTITLE0=Παίξε μαζί μου
TTITLE1=Έλα
TTITLE2=Δέστε μου τα μάτια
TTITLE3=Χρόνε
TTITLE4=Το μαγαζάκι της καρδιάς μου
TTITLE5=Είμαι εγώ
TTITLE6=Μαραμένο
TTITLE7=Κομμάτια
TTITLE8=Κάποιες φορές
TTITLE9=Χριστούγεννα
TTITLE10=Σπάνια-Γιατρικό Flamenco version 2002
TTITLE11=Όλα οδηγούν σ' εσένα Remix
TTITLE12=Γειά Beirut Mix
TTITLE13=Χριστούγεννα Remix
TTITLE14=Χριστούγεννα (Bonus Track)
EXTD=
EXTT0=
EXTT1=
EXTT2=
EXTT3=
EXTT4=
EXTT5=
EXTT6=
EXTT7=
EXTT8=
EXTT9=
EXTT10=
EXTT11=
EXTT12=
EXTT13=
EXTT14=
PLAYORDER=
